<?xml version="1.0" encoding="UTF-8" standalone="no"?>
<!-- Created with Inkscape (http://www.inkscape.org/) -->

<svg
   width="302.4639"
   height="62.061153"
   viewBox="0 0 80.026906 16.420347"
   version="1.1"
   id="svg1"
   xml:space="preserve"
   inkscape:version="1.3.2 (091e20e, 2023-11-25, custom)"
   sodipodi:docname="madamediana.svg"
   xmlns:inkscape="http://www.inkscape.org/namespaces/inkscape"
   xmlns:sodipodi="http://sodipodi.sourceforge.net/DTD/sodipodi-0.dtd"
   xmlns="http://www.w3.org/2000/svg"
   xmlns:svg="http://www.w3.org/2000/svg"><sodipodi:namedview
     id="namedview1"
     pagecolor="#505050"
     bordercolor="#eeeeee"
     borderopacity="1"
     inkscape:showpageshadow="0"
     inkscape:pageopacity="0"
     inkscape:pagecheckerboard="0"
     inkscape:deskcolor="#505050"
     inkscape:document-units="px"
     inkscape:zoom="4"
     inkscape:cx="151.75"
     inkscape:cy="52"
     inkscape:window-width="2560"
     inkscape:window-height="1369"
     inkscape:window-x="3832"
     inkscape:window-y="-8"
     inkscape:window-maximized="1"
     inkscape:current-layer="layer1" /><defs
     id="defs1"><filter
       inkscape:collect="always"
       style="color-interpolation-filters:sRGB"
       id="filter2"
       x="-0.027861501"
       y="-0.1731648"
       width="1.055723"
       height="1.3463296"><feGaussianBlur
         inkscape:collect="always"
         stdDeviation="0.87999326"
         id="feGaussianBlur2" /></filter></defs><g
     inkscape:label="Layer 1"
     inkscape:groupmode="layer"
     id="layer1"
     transform="translate(-1.5950925,-4.7228231)"><path
       style="font-size:16.9333px;line-height:1;font-family:'Parfumerie Script Regular';-inkscape-font-specification:'Parfumerie Script Regular, ';letter-spacing:0.079375px;word-spacing:0px;opacity:0.8;stroke-width:0.825558;filter:url(#filter2)"
       d="m 11.631861,19.026783 c 3.962392,-1.354664 9.313315,-10.786512 13.326507,-10.786512 1.43933,0 2.065862,0.8297317 2.065862,1.777996 0,1.490131 -1.456263,3.031061 -3.08186,3.031061 -2.201329,0 -1.286931,-2.980261 0.474132,-2.980261 0.06773,0 0.06773,-0.1015994 0,-0.1015994 -2.201329,0 -2.997194,3.2173274 -0.609599,3.2173274 1.777997,0 3.318927,-1.591731 3.318927,-3.166528 0,-1.0498641 -0.694265,-1.8795958 -2.167462,-1.8795958 -3.894659,0 -9.397982,9.0085158 -12.953975,10.6510458 h -0.0508 c 4.876791,-3.555993 6.011322,-10.549446 9.110116,-10.549446 0.06773,0 0.06773,-0.1015998 0,-0.1015998 -2.539995,0 -4.504258,0.2878661 -6.028255,0.7111986 -0.440266,-1.1345311 -1.523997,-2.0150627 -3.352793,-2.0150627 -3.58986,0 -5.7234558,3.4543929 -5.3509232,5.9097219 -1.6086635,0.609599 -2.6246615,2.099729 -2.6246615,3.471326 0,1.59173 1.0498646,2.743195 3.0649273,2.743195 3.9962584,0 8.2973174,-6.502387 11.6839774,-9.3810483 h 0.0508 c -2.556929,2.6077283 -5.063057,7.9755843 -6.92572,9.3810483 -0.06773,0.0508 -0.01693,0.08467 0.0508,0.06773 z M 6.7720036,18.85745 c -1.9642628,0 -2.9633275,-1.083731 -2.9633275,-2.641595 0,-1.33773 0.9821314,-2.793994 2.5230617,-3.369726 0.2370662,1.320797 1.2191976,2.336795 3.1326605,2.336795 0.1015998,0 0.2031996,0 0.3047994,-0.01693 -0.3217327,1.185331 -1.4223972,2.336795 -3.0141274,2.336795 -0.8635983,0 -1.4054639,-0.457199 -1.5578636,-1.083731 -0.016933,-0.06773 -0.1185331,-0.03387 -0.1015998,0.03387 0.1862663,0.660399 0.7111986,1.185331 1.7102633,1.185331 1.9473295,0 3.1326605,-1.253064 3.3866598,-2.523061 0.897465,-0.1524 1.608664,-0.575732 2.116663,-1.049865 1.74413,-0.1016 2.963327,-2.082796 2.963327,-3.945459 0,-0.3894656 -0.06773,-0.7789315 -0.186266,-1.1514641 C 16.423985,8.5620037 18.185048,8.2910709 20.40331,8.2572043 16.796517,9.3748021 11.530261,18.85745 6.7720036,18.85745 Z m 1.0667979,-6.383854 c -0.507999,0 -0.9821314,0.08467 -1.4054639,0.237066 -0.3555993,-2.404528 1.7441299,-5.7742551 5.2493234,-5.7742551 1.74413,0 2.810927,0.8297317 3.251193,1.9473295 -5.3509226,1.5747966 -4.809057,5.1646566 -2.793994,5.1815896 -0.457199,0.423333 -1.151465,0.795865 -1.930396,0.948265 0.203199,-1.269998 -0.5418661,-2.539995 -2.3706625,-2.539995 z m 4.8429235,0.237066 c 0,0.01693 0.01693,0.237066 0.01693,0.338666 0,0.3048 -0.169333,0.626532 -0.457199,0.914398 h -0.03387 c -1.710263,0 -2.2859956,-3.403593 2.777061,-4.9614565 0.118533,0.3555993 0.186266,0.7281319 0.186266,1.1175975 0,1.79493 -1.151464,3.674526 -2.743194,3.826926 0.541865,-0.541866 0.812798,-1.066798 0.812798,-1.303864 0,-0.169333 -0.118533,-0.254 -0.253999,-0.254 -0.1524,0 -0.3048,0.1016 -0.3048,0.321733 z m 5.401723,6.248388 c 2.658528,0 4.470391,-4.250258 2.506128,-4.250258 -1.422397,0 -2.472261,1.64253 -2.472261,2.641594 0,0.491066 0.220133,0.778932 0.491065,0.778932 0.169333,0 0.1524,-0.08467 0.06773,-0.08467 -0.1524,0 -0.254,-0.169333 -0.254,-0.440266 0,-0.880532 0.880532,-2.760128 2.218262,-2.760128 1.659464,0 -0.0508,3.962392 -2.404528,3.962392 -0.626532,0 -1.015998,-0.406399 -1.015998,-1.236131 0,-2.844794 5.249323,-8.6359827 7.145852,-8.6359827 0.440266,0 0.575733,0.1354664 0.728132,0.1354664 0.3048,0 0.406399,-0.4741324 -0.06773,-0.4741324 -2.489195,0 -8.381983,5.8419887 -8.381983,8.8561157 0,0.999065 0.643465,1.507064 1.43933,1.507064 z M 7.8388015,12.575196 c 1.7102633,0 2.2521285,1.253064 1.9642628,2.489195 -0.1185331,0.01693 -0.2370662,0.01693 -0.338666,0.01693 -1.8457297,0 -2.7939945,-0.982131 -3.0141274,-2.269062 0.4233325,-0.1524 0.8805316,-0.237066 1.3885306,-0.237066 z m 13.8630755,4.944523 c 0,0.423333 0.203199,0.829732 0.643465,0.829732 0.491066,0 1.269998,-0.643465 1.862663,-1.371597 h 0.03387 c -0.118533,0.287866 -0.2032,0.558799 -0.2032,0.795865 0,0.372532 0.2032,0.575732 0.491066,0.575732 0.812798,0 2.218262,-1.930396 2.218262,-1.930396 H 26.62947 c 0,0 -1.337731,1.828796 -2.082796,1.828796 -0.220133,0 -0.321733,-0.118533 -0.321733,-0.321732 0,-0.745066 2.285996,-3.081861 2.285996,-3.081861 0.01693,-0.01693 -0.01693,-0.01693 -0.03387,0 0,0 -0.270932,0.237066 -0.558799,0.237066 -0.203199,0 -0.304799,-0.1016 -0.304799,-0.1016 h -0.01693 c 0,0 -0.237066,0.287866 -0.541866,0.677332 h -0.03387 c 0,0 0.06773,-0.203199 0.06773,-0.355599 0,-0.220133 -0.1016,-0.372533 -0.406399,-0.372533 -1.049865,0 -2.980261,1.337731 -2.980261,2.590795 z m 0.355599,0.423333 c 0,-0.829732 1.828796,-2.912528 2.675461,-2.912528 0.186267,0 0.254,0.1016 0.254,0.270933 0,0.863598 -1.811863,2.946394 -2.624662,2.946394 -0.203199,0 -0.304799,-0.118533 -0.304799,-0.304799 z m 7.005086,0.304799 c -0.186267,0 -0.254,-0.08467 -0.254,-0.220133 0,-0.491065 0.999065,-2.048929 1.388531,-2.658528 l 0.761998,-1.151464 c 2.573862,-0.643466 4.792124,-3.132661 4.792124,-4.063992 0,-0.2370663 -0.118533,-0.389466 -0.423332,-0.389466 -1.286931,0 -3.454394,2.539995 -4.842924,4.470391 -0.2032,0.03387 -0.423333,0.0508 -0.626532,0.0508 -3.43746,0 -2.963328,-3.742259 -0.677332,-3.742259 0.897465,0 1.286931,0.558799 1.286931,1.168397 0,0.0508 0.0508,0.0508 0.0508,0 0,-0.643465 -0.406399,-1.23613 -1.320797,-1.23613 -2.438395,0 -2.912528,3.894659 0.575732,3.894659 0.220133,0 0.440266,-0.01693 0.660399,-0.0508 -0.254,0.355599 -0.457199,0.677332 -0.643465,0.965198 -0.03387,0.0508 -0.06773,0.1016 -0.1016,0.152399 h -0.0508 c 0,0 0.01693,-0.08467 0.01693,-0.135466 0,-0.220133 -0.1016,-0.372533 -0.406399,-0.372533 -1.049865,0 -2.980261,1.337731 -2.980261,2.590795 0,0.423333 0.2032,0.829732 0.643466,0.829732 0.491065,0 1.202264,-0.592665 1.794929,-1.286931 h 0.0508 c -0.135466,0.3048 -0.220133,0.592666 -0.220133,0.795865 0,0.321733 0.186267,0.491066 0.507999,0.491066 0.761999,0 2.167463,-1.930396 2.167463,-1.930396 h -0.118533 c 0,0 -1.337731,1.828796 -2.031996,1.828796 z m 6.180654,-8.3819832 c 0.254,0 0.355599,0.1354662 0.355599,0.3386662 0,0.863598 -2.116662,3.28506 -4.571991,3.928525 1.303865,-1.896529 3.115728,-4.2671912 4.216392,-4.2671912 z m -8.61905,8.0771842 c 0,-0.829732 1.828797,-2.912528 2.675462,-2.912528 0.203199,0 0.253999,0.1016 0.253999,0.270933 0,0.863598 -1.811863,2.946394 -2.624661,2.946394 -0.220133,0 -0.3048,-0.118533 -0.3048,-0.304799 z m 4.109514,-0.423333 c 0,0.423333 0.203199,0.829732 0.643465,0.829732 0.491066,0 1.269998,-0.643465 1.862663,-1.371597 h 0.03387 c -0.118533,0.287866 -0.2032,0.558799 -0.2032,0.795865 0,0.372532 0.2032,0.575732 0.491066,0.575732 0.812798,0 2.218262,-1.930396 2.218262,-1.930396 H 35.66127 c 0,0 -1.337731,1.828796 -2.082796,1.828796 -0.220133,0 -0.321732,-0.118533 -0.321732,-0.321732 0,-0.745066 2.285995,-3.081861 2.285995,-3.081861 0.01693,-0.01693 -0.01693,-0.01693 -0.03387,0 0,0 -0.270932,0.237066 -0.558798,0.237066 -0.2032,0 -0.3048,-0.1016 -0.3048,-0.1016 h -0.01693 c 0,0 -0.237066,0.287866 -0.541866,0.677332 h -0.03387 c 0,0 0.06773,-0.203199 0.06773,-0.355599 0,-0.220133 -0.1016,-0.372533 -0.406399,-0.372533 -1.049865,0 -2.980261,1.337731 -2.980261,2.590795 z m 0.355599,0.423333 c 0,-0.829732 1.828797,-2.912528 2.675462,-2.912528 0.186266,0 0.253999,0.1016 0.253999,0.270933 0,0.863598 -1.811863,2.946394 -2.624661,2.946394 -0.2032,0 -0.3048,-0.118533 -0.3048,-0.304799 z m 10.510277,-2.912528 c 0.169333,0 0.237066,0.08467 0.237066,0.2032 0,0.812798 -1.828796,1.43933 -1.828796,2.506128 0,0.389466 0.304799,0.609599 0.677332,0.609599 0.897465,0 2.285995,-1.930396 2.285995,-1.930396 H 42.85262 c 0,0 -1.33773,1.828796 -2.133596,1.828796 -0.253999,0 -0.406399,-0.08467 -0.406399,-0.287866 0,-0.711198 1.828797,-1.405464 1.828797,-2.523062 0,-0.338666 -0.237067,-0.507999 -0.541866,-0.507999 -0.575732,0 -1.371597,0.778932 -1.964263,1.473198 h -0.0508 c 0.2032,-0.372533 0.321733,-0.711199 0.321733,-0.999065 0,-0.270933 -0.186266,-0.474133 -0.440266,-0.474133 -0.491065,0 -1.269997,0.778932 -1.845729,1.439331 h -0.0508 c 0.186266,-0.338666 0.304799,-0.677332 0.304799,-0.965198 0,-0.270933 -0.135466,-0.474133 -0.389466,-0.474133 -0.660399,0 -1.74413,1.490131 -1.74413,1.490131 h 0.118533 c 0,0 1.032932,-1.388531 1.608664,-1.388531 0.1524,0 0.203199,0.06773 0.203199,0.220133 0,0.694265 -2.116662,2.895594 -2.421461,3.200394 0,0 0,0.03387 0.03387,0 0,0 0.3048,-0.220133 0.575732,-0.220133 0.186267,0 0.3048,0.1016 0.3048,0.1016 h 0.03387 c 1.083732,-1.439331 2.556929,-3.301994 3.251194,-3.301994 0.1524,0 0.237066,0.06773 0.237066,0.220133 0,0.694265 -2.099729,2.895594 -2.370662,3.200394 -0.03387,0.03387 0,0 0.01693,0 0,0 0.3048,-0.220133 0.592666,-0.220133 0.169333,0 0.270933,0.1016 0.270933,0.1016 h 0.03387 c 0.846665,-1.066798 2.404529,-3.301994 3.369727,-3.301994 z m 4.228037,0.118533 c 0,-0.152399 -0.118533,-0.220133 -0.3556,-0.220133 -0.863598,0 -2.878661,1.049865 -2.878661,2.455329 0,0.558799 0.3556,0.965198 0.897465,0.965198 1.354664,0 2.760128,-1.930396 2.760128,-1.930396 h -0.118533 c 0,0 -1.354664,1.828796 -2.590795,1.828796 -0.389466,0 -0.541865,-0.186266 -0.541865,-0.457199 0,-0.338666 0.169333,-0.728132 0.423332,-1.117598 0.880532,-0.03387 2.404529,-0.982131 2.404529,-1.523997 z m -0.3048,-0.135466 c 0.08467,0 0.135467,0.03387 0.135467,0.118533 0,0.474132 -1.388531,1.422397 -2.184396,1.456264 0.558799,-0.812799 1.49013,-1.574797 2.048929,-1.574797 z M 66.577225,9.4086687 c -1.981196,0 -2.387595,3.2511933 -0.06773,3.2511933 2.590795,0 3.403593,-4.5042575 0.135466,-4.5042575 -1.405463,0 -2.556928,0.6942653 -3.606792,1.7102633 C 62.4455,8.8329365 61.378702,8.1386712 59.803905,8.1386712 c -0.948265,0 -1.676396,0.2031996 -1.676396,0.2031996 C 57.51791,7.562939 56.552712,7.05494 55.214981,7.05494 c -5.892788,0 -8.41585,9.821314 -2.455329,9.821314 0.778932,0 1.422398,-0.2032 1.964263,-0.507999 h 0.0508 c 2.523062,0 4.199459,-2.827861 4.199459,-5.384789 0,-0.931332 -0.254,-1.8287968 -0.761999,-2.5230621 0,0 0.711199,-0.2201329 1.59173,-0.2201329 1.540931,0 2.573862,0.6942653 3.149594,1.7102633 -1.185331,1.1853307 -2.235196,2.8109277 -3.301993,4.3349247 -1.320798,1.879596 -2.641595,3.58986 -4.690525,4.182525 -0.914398,-0.355599 -1.727196,-0.829732 -2.692394,-0.829732 -1.151465,0 -1.337731,1.151465 1.049864,1.151465 0.575733,0 1.134531,-0.06773 1.659464,-0.2032 0.524932,0.2032 1.100664,0.372533 1.777996,0.372533 5.503323,0 7.890918,-5.638789 6.451588,-8.77145 0.931331,-1.1345306 1.964262,-1.9303957 3.437459,-1.9303957 3.098794,0 2.302929,4.3010577 -0.135466,4.3010577 -2.201329,0 -1.777996,-3.0649268 0.06773,-3.0649268 0.06773,0 0.06773,-0.084667 0,-0.084667 z M 54.554582,16.351322 c -0.474132,0.253999 -1.066798,0.423332 -1.79493,0.423332 -5.808121,0 -3.301993,-9.6181142 2.455329,-9.6181142 1.286931,0 2.218262,0.4741324 2.793994,1.2022643 -4.97839,1.2869308 -6.587053,7.7215849 -3.454393,7.9925179 z m 2.184396,-2.438396 c 0,-0.152399 -0.118533,-0.237066 -0.254,-0.237066 -0.152399,0 -0.253999,0.118533 -0.253999,0.220133 0,0.575732 -0.423333,1.676397 -1.456264,2.336796 -2.878661,-0.1016 -1.134531,-6.4007878 3.33586,-7.7385185 0.491066,0.677332 0.728132,1.5747965 0.728132,2.4891955 0,2.472261 -1.59173,5.147723 -3.877726,5.249323 1.219198,-0.795866 1.777997,-2.082796 1.777997,-2.319863 z m 0.03387,4.944524 c -0.592666,0 -1.117598,-0.135466 -1.608664,-0.321733 2.269062,-0.609598 3.945459,-2.336795 5.266256,-4.199458 0.982132,-1.405464 1.777997,-2.895594 2.692395,-4.047059 1.354664,3.081861 -1.032931,8.56825 -6.349987,8.56825 z m -3.43746,-0.169333 c -2.269063,0 -2.065863,-0.948265 -1.066798,-0.948265 0.897465,0 1.659463,0.440266 2.506128,0.778932 -0.440266,0.1016 -0.931331,0.169333 -1.43933,0.169333 z m 11.76336,-2.269062 c 0,0 -1.320797,1.828796 -2.099729,1.828796 -0.254,0 -0.338666,-0.118533 -0.338666,-0.304799 0,-0.711199 2.472262,-3.098794 2.472262,-3.098794 0,0 0.01693,-0.01693 -0.03387,0 0,0 -0.304799,0.237066 -0.575732,0.237066 -0.2032,0 -0.304799,-0.1016 -0.304799,-0.1016 0,0 0,0 -0.03387,0 0,0 -1.710263,1.84573 -1.710263,2.810928 0,0.389466 0.186266,0.558799 0.491065,0.558799 0.863599,0 2.252129,-1.930396 2.252129,-1.930396 z m 0.609599,-3.352794 c -0.355599,0 -0.609599,0.745066 -0.406399,0.745066 0.186266,0 0.660398,-0.3556 0.660398,-0.558799 0,-0.1016 -0.118533,-0.186267 -0.253999,-0.186267 z m -0.970487,4.453458 c 0,0.423333 0.2032,0.829732 0.643465,0.829732 0.491066,0 1.269998,-0.643465 1.862663,-1.371597 h 0.03387 c -0.118533,0.287866 -0.2032,0.558799 -0.2032,0.795865 0,0.372532 0.2032,0.575732 0.491066,0.575732 0.812798,0 2.218262,-1.930396 2.218262,-1.930396 h -0.118533 c 0,0 -1.33773,1.828796 -2.082796,1.828796 -0.220133,0 -0.321732,-0.118533 -0.321732,-0.321732 0,-0.745066 2.285995,-3.081861 2.285995,-3.081861 0.01693,-0.01693 -0.01693,-0.01693 -0.03387,0 0,0 -0.270933,0.237066 -0.558799,0.237066 -0.2032,0 -0.3048,-0.1016 -0.3048,-0.1016 h -0.01693 c 0,0 -0.237066,0.287866 -0.541866,0.677332 h -0.03387 c 0,0 0.06773,-0.203199 0.06773,-0.355599 0,-0.220133 -0.1016,-0.372533 -0.406399,-0.372533 -1.049865,0 -2.980261,1.337731 -2.980261,2.590795 z m 0.355599,0.423333 c 0,-0.829732 1.828797,-2.912528 2.675462,-2.912528 0.186266,0 0.253999,0.1016 0.253999,0.270933 0,0.863598 -1.811863,2.946394 -2.624661,2.946394 -0.2032,0 -0.3048,-0.118533 -0.3048,-0.304799 z m 4.769888,-1.523997 c 0,0 1.049865,-1.388531 1.608664,-1.388531 0.169333,0 0.220133,0.08467 0.220133,0.237066 0,0.694266 -2.133596,2.878661 -2.438395,3.183461 0,0 0,0.03387 0.03387,0 0,0 0.3048,-0.220133 0.575732,-0.220133 0.2032,0 0.3048,0.1016 0.3048,0.1016 h 0.03387 c 0.965198,-1.202265 2.404529,-3.301994 3.369727,-3.301994 0.1524,0 0.237066,0.08467 0.237066,0.2032 0,0.812798 -1.828796,1.43933 -1.828796,2.506128 0,0.389466 0.304799,0.609599 0.677332,0.609599 0.897465,0 2.285995,-1.930396 2.285995,-1.930396 h -0.118533 c 0,0 -1.320797,1.828796 -2.167462,1.828796 -0.2032,0 -0.372533,-0.08467 -0.372533,-0.287866 0,-0.711198 1.828797,-1.405464 1.828797,-2.523062 0,-0.338666 -0.237066,-0.507999 -0.541866,-0.507999 -0.575732,0 -1.337731,0.745066 -1.930396,1.422398 h -0.03387 c 0.169333,-0.338666 0.287866,-0.677332 0.287866,-0.948265 0,-0.270933 -0.152399,-0.474133 -0.406399,-0.474133 -0.626532,0 -1.74413,1.490131 -1.74413,1.490131 z m 4.600549,1.100664 c 0,0.423333 0.2032,0.829732 0.643465,0.829732 0.491066,0 1.269998,-0.643465 1.862663,-1.371597 h 0.03387 c -0.118533,0.287866 -0.2032,0.558799 -0.2032,0.795865 0,0.372532 0.2032,0.575732 0.491066,0.575732 0.812799,0 2.218262,-1.930396 2.218262,-1.930396 h -0.118533 c 0,0 -1.33773,1.828796 -2.082796,1.828796 -0.220132,0 -0.321732,-0.118533 -0.321732,-0.321732 0,-0.745066 2.285995,-3.081861 2.285995,-3.081861 0.01693,-0.01693 -0.01693,-0.01693 -0.03387,0 0,0 -0.270933,0.237066 -0.558799,0.237066 -0.2032,0 -0.3048,-0.1016 -0.3048,-0.1016 h -0.01693 c 0,0 -0.237066,0.287866 -0.541866,0.677332 h -0.03387 c 0,0 0.06773,-0.203199 0.06773,-0.355599 0,-0.220133 -0.1016,-0.372533 -0.406399,-0.372533 -1.049865,0 -2.980261,1.337731 -2.980261,2.590795 z m 0.355599,0.423333 c 0,-0.829732 1.828797,-2.912528 2.675462,-2.912528 0.186266,0 0.253999,0.1016 0.253999,0.270933 0,0.863598 -1.811863,2.946394 -2.624661,2.946394 -0.2032,0 -0.3048,-0.118533 -0.3048,-0.304799 z"
       id="text2"
       inkscape:label="name-shadow"
       aria-label="Madame Diana" /><path
       style="font-size:16.9333px;line-height:1;font-family:'Parfumerie Script Regular';-inkscape-font-specification:'Parfumerie Script Regular, ';letter-spacing:0.079375px;word-spacing:0px;stroke-width:0.825558"
       d="M 10.573527,17.968449 C 14.53592,16.613785 19.886842,7.1819366 23.900034,7.1819366 c 1.439331,0 2.065863,0.8297317 2.065863,1.7779965 0,1.4901309 -1.456264,3.0310609 -3.081861,3.0310609 -2.201329,0 -1.28693,-2.980261 0.474133,-2.980261 0.06773,0 0.06773,-0.1015998 0,-0.1015998 -2.201329,0 -2.997194,3.2173268 -0.609599,3.2173268 1.777997,0 3.318927,-1.59173 3.318927,-3.1665269 0,-1.0498646 -0.694265,-1.8795963 -2.167463,-1.8795963 -3.894659,0 -9.397981,9.0085152 -12.953974,10.6510462 h -0.0508 c 4.87679,-3.555993 6.011322,-10.5494464 9.110115,-10.5494464 0.06773,0 0.06773,-0.1015998 0,-0.1015998 -2.539995,0 -4.504257,0.2878661 -6.028254,0.7111986 -0.440266,-1.1345311 -1.523997,-2.0150627 -3.352794,-2.0150627 -3.5898594,0 -5.7234552,3.4543932 -5.3509226,5.9097213 -1.6086635,0.609599 -2.6246615,2.09973 -2.6246615,3.471327 0,1.59173 1.0498646,2.743195 3.0649273,2.743195 3.9962588,0 8.2973168,-6.502388 11.6839768,-9.3810487 h 0.0508 c -2.556928,2.6077287 -5.063057,7.9755847 -6.92572,9.3810487 -0.06773,0.0508 -0.01693,0.08467 0.0508,0.06773 z M 5.7136702,17.799116 c -1.9642628,0 -2.9633275,-1.083731 -2.9633275,-2.641595 0,-1.337731 0.9821314,-2.793995 2.5230617,-3.369727 0.2370662,1.320798 1.2191976,2.336796 3.1326605,2.336796 0.1015998,0 0.2031996,0 0.3047994,-0.01693 -0.3217327,1.185331 -1.4223972,2.336796 -3.0141274,2.336796 -0.8635983,0 -1.4054639,-0.457199 -1.5578636,-1.083731 -0.016933,-0.06773 -0.1185331,-0.03387 -0.1015998,0.03387 0.1862663,0.660399 0.7111986,1.185331 1.7102633,1.185331 1.9473295,0 3.1326605,-1.253064 3.38666,-2.523062 0.8974652,-0.152399 1.6086632,-0.575732 2.1166622,-1.049864 1.74413,-0.1016 2.963328,-2.082796 2.963328,-3.9454591 0,-0.3894659 -0.06773,-0.7789318 -0.186266,-1.1514644 1.33773,-0.4063992 3.098793,-0.677332 5.317056,-0.7111986 C 15.738184,8.3164677 10.471928,17.799116 5.7136702,17.799116 Z m 1.0667979,-6.383854 c -0.507999,0 -0.9821314,0.08467 -1.4054639,0.237066 -0.3555993,-2.4045288 1.7441299,-5.7742555 5.2493228,-5.7742555 1.74413,0 2.810928,0.8297317 3.251194,1.9473295 -5.350923,1.5747969 -4.8090574,5.164657 -2.793995,5.18159 -0.457199,0.423332 -1.1514641,0.795865 -1.9303959,0.948265 0.2031996,-1.269998 -0.5418656,-2.539995 -2.370662,-2.539995 z m 4.8429239,0.237066 c 0,0.01693 0.01693,0.237066 0.01693,0.338666 0,0.304799 -0.169333,0.626532 -0.457199,0.914398 h -0.03387 c -1.7102638,0 -2.285996,-3.4035933 2.777061,-4.9614569 0.118533,0.3555993 0.186266,0.7281319 0.186266,1.1175978 0,1.7949301 -1.151464,3.6745261 -2.743195,3.8269261 0.541866,-0.541866 0.812799,-1.066798 0.812799,-1.303864 0,-0.169333 -0.118533,-0.254 -0.254,-0.254 -0.152399,0 -0.304799,0.1016 -0.304799,0.321733 z m 5.401723,6.248388 c 2.658528,0 4.470391,-4.250259 2.506128,-4.250259 -1.422397,0 -2.472262,1.64253 -2.472262,2.641595 0,0.491066 0.220133,0.778932 0.491066,0.778932 0.169333,0 0.1524,-0.08467 0.06773,-0.08467 -0.1524,0 -0.253999,-0.169333 -0.253999,-0.440265 0,-0.880532 0.880531,-2.760128 2.218262,-2.760128 1.659463,0 -0.0508,3.962392 -2.404529,3.962392 -0.626532,0 -1.015998,-0.406399 -1.015998,-1.236131 0,-2.844794 5.249323,-8.6359831 7.145853,-8.6359831 0.440266,0 0.575732,0.1354664 0.728132,0.1354664 0.304799,0 0.406399,-0.4741324 -0.06773,-0.4741324 -2.489195,0 -8.381984,5.8419881 -8.381984,8.8561161 0,0.999065 0.643466,1.507064 1.439331,1.507064 z M 6.7804681,11.516861 c 1.7102633,0 2.2521289,1.253065 1.9642628,2.489196 -0.1185331,0.01693 -0.2370662,0.01693 -0.338666,0.01693 -1.8457297,0 -2.7939945,-0.982132 -3.0141274,-2.269062 0.4233325,-0.1524 0.8805316,-0.237067 1.3885306,-0.237067 z m 13.8630749,4.944524 c 0,0.423333 0.2032,0.829732 0.643466,0.829732 0.491065,0 1.269997,-0.643466 1.862663,-1.371598 h 0.03387 c -0.118533,0.287867 -0.203199,0.558799 -0.203199,0.795866 0,0.372532 0.203199,0.575732 0.491065,0.575732 0.812799,0 2.218263,-1.930396 2.218263,-1.930396 h -0.118533 c 0,0 -1.337731,1.828796 -2.082796,1.828796 -0.220133,0 -0.321733,-0.118533 -0.321733,-0.321733 0,-0.745065 2.285996,-3.08186 2.285996,-3.08186 0.01693,-0.01693 -0.01693,-0.01693 -0.03387,0 0,0 -0.270933,0.237066 -0.558799,0.237066 -0.2032,0 -0.304799,-0.1016 -0.304799,-0.1016 h -0.01693 c 0,0 -0.237066,0.287866 -0.541865,0.677332 h -0.03387 c 0,0 0.06773,-0.2032 0.06773,-0.355599 0,-0.220133 -0.101599,-0.372533 -0.406399,-0.372533 -1.049864,0 -2.980261,1.337731 -2.98026,2.590795 z m 0.3556,0.423333 c 0,-0.829732 1.828796,-2.912528 2.675461,-2.912528 0.186266,0 0.254,0.1016 0.254,0.270933 0,0.863598 -1.811864,2.946394 -2.624662,2.946394 -0.2032,0 -0.304799,-0.118533 -0.304799,-0.304799 z m 7.005085,0.304799 c -0.186266,0 -0.253999,-0.08467 -0.253999,-0.220133 0,-0.491066 0.999064,-2.048929 1.38853,-2.658528 l 0.761999,-1.151464 c 2.573861,-0.643466 4.792124,-3.132661 4.792124,-4.0639925 0,-0.2370662 -0.118533,-0.3894659 -0.423333,-0.3894659 -1.286931,0 -3.454393,2.5399954 -4.842924,4.4703914 -0.203199,0.03387 -0.423332,0.0508 -0.626532,0.0508 -3.43746,0 -2.963327,-3.7422596 -0.677332,-3.7422596 0.897465,0 1.286931,0.5587986 1.286931,1.1683976 0,0.0508 0.0508,0.0508 0.0508,0 0,-0.643465 -0.406399,-1.2361308 -1.320797,-1.2361308 -2.438396,0 -2.912528,3.8946588 0.575732,3.8946588 0.220133,0 0.440266,-0.01693 0.660399,-0.0508 -0.254,0.3556 -0.4572,0.677332 -0.643466,0.965198 -0.03387,0.0508 -0.06773,0.1016 -0.1016,0.1524 h -0.0508 c 0,0 0.01693,-0.08467 0.01693,-0.135466 0,-0.220133 -0.1016,-0.372533 -0.406399,-0.372533 -1.049865,0 -2.980261,1.337731 -2.980261,2.590795 0,0.423333 0.203199,0.829732 0.643465,0.829732 0.491066,0 1.202264,-0.592666 1.79493,-1.286931 h 0.0508 c -0.135467,0.304799 -0.220133,0.592665 -0.220133,0.795865 0,0.321733 0.186266,0.491066 0.507999,0.491066 0.761998,0 2.167462,-1.930396 2.167462,-1.930396 H 30.03622 c 0,0 -1.33773,1.828796 -2.031996,1.828796 z m 6.180655,-8.3819836 c 0.253999,0 0.355599,0.1354664 0.355599,0.338666 0,0.8635986 -2.116662,3.2850606 -4.571991,3.9285256 1.303864,-1.89653 3.115727,-4.2671916 4.216392,-4.2671916 z m -8.61905,8.0771846 c 0,-0.829732 1.828796,-2.912528 2.675461,-2.912528 0.2032,0 0.254,0.1016 0.254,0.270933 0,0.863598 -1.811863,2.946394 -2.624662,2.946394 -0.220132,0 -0.304799,-0.118533 -0.304799,-0.304799 z m 4.109513,-0.423333 c 0,0.423333 0.2032,0.829732 0.643466,0.829732 0.491066,0 1.269997,-0.643466 1.862663,-1.371598 h 0.03387 c -0.118533,0.287867 -0.203199,0.558799 -0.203199,0.795866 0,0.372532 0.203199,0.575732 0.491066,0.575732 0.812798,0 2.218262,-1.930396 2.218262,-1.930396 h -0.118533 c 0,0 -1.337731,1.828796 -2.082796,1.828796 -0.220133,0 -0.321733,-0.118533 -0.321733,-0.321733 0,-0.745065 2.285996,-3.08186 2.285996,-3.08186 0.01693,-0.01693 -0.01693,-0.01693 -0.03387,0 0,0 -0.270933,0.237066 -0.558799,0.237066 -0.203199,0 -0.304799,-0.1016 -0.304799,-0.1016 h -0.01693 c 0,0 -0.237066,0.287866 -0.541865,0.677332 h -0.03387 c 0,0 0.06773,-0.2032 0.06773,-0.355599 0,-0.220133 -0.101599,-0.372533 -0.406399,-0.372533 -1.049864,0 -2.980261,1.337731 -2.980261,2.590795 z m 0.3556,0.423333 c 0,-0.829732 1.828796,-2.912528 2.675461,-2.912528 0.186266,0 0.254,0.1016 0.254,0.270933 0,0.863598 -1.811863,2.946394 -2.624662,2.946394 -0.203199,0 -0.304799,-0.118533 -0.304799,-0.304799 z M 40.541223,13.97219 c 0.169333,0 0.237066,0.08467 0.237066,0.2032 0,0.812798 -1.828797,1.43933 -1.828797,2.506128 0,0.389466 0.3048,0.609599 0.677332,0.609599 0.897465,0 2.285996,-1.930396 2.285996,-1.930396 h -0.118533 c 0,0 -1.337731,1.828796 -2.133596,1.828796 -0.253999,0 -0.406399,-0.08467 -0.406399,-0.287866 0,-0.711199 1.828796,-1.405464 1.828796,-2.523062 0,-0.338666 -0.237066,-0.507999 -0.541865,-0.507999 -0.575733,0 -1.371598,0.778932 -1.964263,1.473197 h -0.0508 c 0.2032,-0.372532 0.321733,-0.711198 0.321733,-0.999064 0,-0.270933 -0.186267,-0.474133 -0.440266,-0.474133 -0.491066,0 -1.269998,0.778932 -1.84573,1.439331 h -0.0508 c 0.186267,-0.338666 0.3048,-0.677332 0.3048,-0.965198 0,-0.270933 -0.135467,-0.474133 -0.389466,-0.474133 -0.660399,0 -1.74413,1.490131 -1.74413,1.490131 h 0.118533 c 0,0 1.032931,-1.388531 1.608663,-1.388531 0.1524,0 0.2032,0.06773 0.2032,0.220133 0,0.694265 -2.116662,2.895594 -2.421462,3.200394 0,0 0,0.03387 0.03387,0 0,0 0.304799,-0.220133 0.575732,-0.220133 0.186266,0 0.304799,0.101599 0.304799,0.101599 h 0.03387 c 1.083731,-1.43933 2.556928,-3.301993 3.251194,-3.301993 0.152399,0 0.237066,0.06773 0.237066,0.220133 0,0.694265 -2.099729,2.895594 -2.370662,3.200394 -0.03387,0.03387 0,0 0.01693,0 0,0 0.304799,-0.220133 0.592666,-0.220133 0.169333,0 0.270932,0.101599 0.270932,0.101599 h 0.03387 c 0.846665,-1.066797 2.404529,-3.301993 3.369727,-3.301993 z m 4.228036,0.118533 c 0,-0.1524 -0.118533,-0.220133 -0.355599,-0.220133 -0.863598,0 -2.878661,1.049865 -2.878661,2.455329 0,0.558799 0.355599,0.965198 0.897465,0.965198 1.354664,0 2.760128,-1.930396 2.760128,-1.930396 h -0.118533 c 0,0 -1.354664,1.828796 -2.590795,1.828796 -0.389466,0 -0.541866,-0.186266 -0.541866,-0.457199 0,-0.338666 0.169333,-0.728132 0.423333,-1.117598 0.880531,-0.03387 2.404528,-0.982131 2.404528,-1.523997 z M 44.46446,13.955257 c 0.08467,0 0.135466,0.03387 0.135466,0.118533 0,0.474132 -1.38853,1.422397 -2.184395,1.456264 0.558799,-0.812799 1.49013,-1.574797 2.048929,-1.574797 z M 65.518892,8.3503343 c -1.981196,0 -2.387595,3.2511937 -0.06773,3.2511937 2.590795,0 3.403593,-4.5042579 0.135466,-4.5042579 -1.405464,0 -2.556928,0.6942653 -3.606793,1.7102633 -0.592665,-1.0329313 -1.659463,-1.7271966 -3.23426,-1.7271966 -0.948265,0 -1.676397,0.2031996 -1.676397,0.2031996 -0.609599,-0.7789318 -1.574797,-1.2869308 -2.912527,-1.2869308 -5.892789,0 -8.415851,9.8213144 -2.455329,9.8213144 0.778932,0 1.422397,-0.2032 1.964263,-0.507999 h 0.0508 c 2.523061,0 4.199458,-2.827861 4.199458,-5.3847898 0,-0.9313315 -0.253999,-1.8287964 -0.761998,-2.5230617 0,0 0.711198,-0.2201329 1.59173,-0.2201329 1.54093,0 2.573861,0.6942653 3.149594,1.7102633 -1.185331,1.1853311 -2.235196,2.8109281 -3.301994,4.3349251 -1.320797,1.879596 -2.641595,3.589859 -4.690524,4.182525 -0.914398,-0.355599 -1.727197,-0.829732 -2.692395,-0.829732 -1.151464,0 -1.33773,1.151465 1.049865,1.151465 0.575732,0 1.134531,-0.06773 1.659463,-0.2032 0.524933,0.2032 1.100665,0.372533 1.777997,0.372533 5.503322,0 7.890918,-5.638789 6.451587,-8.7714499 0.931332,-1.1345311 1.964263,-1.9303962 3.43746,-1.9303962 3.098794,0 2.302929,4.3010581 -0.135466,4.3010581 -2.201329,0 -1.777997,-3.0649272 0.06773,-3.0649272 0.06773,0 0.06773,-0.084666 0,-0.084666 z M 53.496249,15.292987 c -0.474133,0.254 -1.066798,0.423333 -1.79493,0.423333 -5.808122,0 -3.301993,-9.6181146 2.455329,-9.6181146 1.28693,0 2.218262,0.4741324 2.793994,1.2022643 -4.97839,1.2869308 -6.587054,7.7215853 -3.454393,7.9925173 z m 2.184396,-2.438395 c 0,-0.1524 -0.118534,-0.237066 -0.254,-0.237066 -0.1524,0 -0.253999,0.118533 -0.253999,0.220133 0,0.575732 -0.423333,1.676397 -1.456264,2.336795 -2.878661,-0.1016 -1.134531,-6.4007872 3.33586,-7.7385179 0.491066,0.677332 0.728132,1.5747969 0.728132,2.4891951 0,2.4722618 -1.59173,5.1477228 -3.877726,5.2493228 1.219198,-0.795865 1.777997,-2.082796 1.777997,-2.319862 z m 0.03387,4.944524 c -0.592665,0 -1.117598,-0.135467 -1.608663,-0.321733 2.269062,-0.609599 3.945459,-2.336795 5.266256,-4.199458 0.982131,-1.405464 1.777996,-2.895595 2.692395,-4.0470591 1.354664,3.0818611 -1.032932,8.5682501 -6.349988,8.5682501 z m -3.43746,-0.169333 c -2.269062,0 -2.065862,-0.948265 -1.066798,-0.948265 0.897465,0 1.659464,0.440266 2.506129,0.778932 -0.440266,0.1016 -0.931332,0.169333 -1.439331,0.169333 z m 11.763361,-2.269062 c 0,0 -1.320798,1.828796 -2.099729,1.828796 -0.254,0 -0.338666,-0.118533 -0.338666,-0.304799 0,-0.711199 2.472261,-3.098794 2.472261,-3.098794 0,0 0.01693,-0.01693 -0.03387,0 0,0 -0.3048,0.237066 -0.575732,0.237066 -0.2032,0 -0.3048,-0.1016 -0.3048,-0.1016 0,0 0,0 -0.03387,0 0,0 -1.710264,1.84573 -1.710264,2.810928 0,0.389466 0.186267,0.558799 0.491066,0.558799 0.863598,0 2.252129,-1.930396 2.252129,-1.930396 z m 0.609599,-3.352794 c -0.3556,0 -0.609599,0.745065 -0.4064,0.745065 0.186267,0 0.660399,-0.355599 0.660399,-0.558799 0,-0.101599 -0.118533,-0.186266 -0.253999,-0.186266 z m -0.970487,4.453458 c 0,0.423333 0.203199,0.829732 0.643465,0.829732 0.491066,0 1.269997,-0.643466 1.862663,-1.371598 h 0.03387 c -0.118534,0.287867 -0.2032,0.558799 -0.2032,0.795866 0,0.372532 0.2032,0.575732 0.491066,0.575732 0.812798,0 2.218262,-1.930396 2.218262,-1.930396 h -0.118533 c 0,0 -1.337731,1.828796 -2.082796,1.828796 -0.220133,0 -0.321733,-0.118533 -0.321733,-0.321733 0,-0.745065 2.285996,-3.08186 2.285996,-3.08186 0.01693,-0.01693 -0.01693,-0.01693 -0.03387,0 0,0 -0.270933,0.237066 -0.558799,0.237066 -0.203199,0 -0.304799,-0.1016 -0.304799,-0.1016 h -0.01693 c 0,0 -0.237067,0.287866 -0.541866,0.677332 h -0.03387 c 0,0 0.06773,-0.2032 0.06773,-0.355599 0,-0.220133 -0.1016,-0.372533 -0.4064,-0.372533 -1.049864,0 -2.98026,1.337731 -2.98026,2.590795 z m 0.355599,0.423333 c 0,-0.829732 1.828796,-2.912528 2.675461,-2.912528 0.186267,0 0.254,0.1016 0.254,0.270933 0,0.863598 -1.811863,2.946394 -2.624662,2.946394 -0.203199,0 -0.304799,-0.118533 -0.304799,-0.304799 z m 4.769888,-1.523997 c 0,0 1.049865,-1.388531 1.608664,-1.388531 0.169333,0 0.220132,0.08467 0.220132,0.237066 0,0.694265 -2.133595,2.878661 -2.438395,3.183461 0,0 0,0.03387 0.03387,0 0,0 0.304799,-0.220133 0.575732,-0.220133 0.2032,0 0.304799,0.101599 0.304799,0.101599 h 0.03387 c 0.965198,-1.202264 2.404529,-3.301993 3.369727,-3.301993 0.152399,0 0.237066,0.08467 0.237066,0.2032 0,0.812798 -1.828796,1.43933 -1.828796,2.506128 0,0.389466 0.304799,0.609599 0.677332,0.609599 0.897464,0 2.285995,-1.930396 2.285995,-1.930396 h -0.118533 c 0,0 -1.320797,1.828796 -2.167462,1.828796 -0.2032,0 -0.372533,-0.08467 -0.372533,-0.287866 0,-0.711199 1.828796,-1.405464 1.828796,-2.523062 0,-0.338666 -0.237066,-0.507999 -0.541865,-0.507999 -0.575732,0 -1.337731,0.745065 -1.930396,1.422397 h -0.03387 c 0.169333,-0.338666 0.287866,-0.677332 0.287866,-0.948264 0,-0.270933 -0.1524,-0.474133 -0.406399,-0.474133 -0.626532,0 -1.74413,1.490131 -1.74413,1.490131 z m 4.600549,1.100664 c 0,0.423333 0.203199,0.829732 0.643465,0.829732 0.491066,0 1.269998,-0.643466 1.862663,-1.371598 h 0.03387 c -0.118533,0.287867 -0.2032,0.558799 -0.2032,0.795866 0,0.372532 0.2032,0.575732 0.491066,0.575732 0.812798,0 2.218262,-1.930396 2.218262,-1.930396 h -0.11854 c 0,0 -1.337731,1.828796 -2.082796,1.828796 -0.220133,0 -0.321733,-0.118533 -0.321733,-0.321733 0,-0.745065 2.285996,-3.08186 2.285996,-3.08186 0.01693,-0.01693 -0.01693,-0.01693 -0.03387,0 0,0 -0.270933,0.237066 -0.558799,0.237066 -0.203199,0 -0.304799,-0.1016 -0.304799,-0.1016 h -0.01693 c 0,0 -0.237067,0.287866 -0.541866,0.677332 h -0.03387 c 0,0 0.06773,-0.2032 0.06773,-0.355599 0,-0.220133 -0.1016,-0.372533 -0.4064,-0.372533 -1.049864,0 -2.98026,1.337731 -2.98026,2.590795 z m 0.355599,0.423333 c 0,-0.829732 1.828796,-2.912528 2.675461,-2.912528 0.186267,0 0.254,0.1016 0.254,0.270933 0,0.863598 -1.811863,2.946394 -2.624662,2.946394 -0.203199,0 -0.304799,-0.118533 -0.304799,-0.304799 z"
       id="text1"
       inkscape:label="name"
       aria-label="Madame Diana" /></g></svg>
